<svg width="4494" height="6536" viewBox="0 0 4494 6536" fill="none" xmlns="http://www.w3.org/2000/svg">
<rect width="4494" height="6536" fill="#E5E5E5"/>
<rect width="1860" height="6536" fill="#232323"/>
<path d="M4328.64 45.7583C4330.56 45.7583 4331.85 44.2995 4331.85 42.102C4331.85 39.8861 4330.56 38.4273 4328.64 38.4273C4326.72 38.4273 4325.42 39.8861 4325.42 42.102C4325.42 44.2995 4326.72 45.7583 4328.64 45.7583ZM4328.64 44.7796C4327.18 44.7796 4326.51 43.5239 4326.51 42.102C4326.51 40.6801 4327.18 39.406 4328.64 39.406C4330.1 39.406 4330.76 40.6801 4330.76 42.102C4330.76 43.5239 4330.1 44.7796 4328.64 44.7796ZM4334.6 36.156H4333.51V45.6105H4334.6V36.156ZM4336.6 45.6105H4337.69V38.5196H4336.6V45.6105ZM4337.15 37.3378C4337.58 37.3378 4337.93 37.0054 4337.93 36.5992C4337.93 36.1929 4337.58 35.8605 4337.15 35.8605C4336.73 35.8605 4336.38 36.1929 4336.38 36.5992C4336.38 37.0054 4336.73 37.3378 4337.15 37.3378ZM4345.48 38.5196H4344.3L4342.34 44.1702H4342.27L4340.31 38.5196H4339.13L4341.75 45.6105H4342.86L4345.48 38.5196ZM4346.92 45.6105H4348.01V38.5196H4346.92V45.6105ZM4347.47 37.3378C4347.9 37.3378 4348.25 37.0054 4348.25 36.5992C4348.25 36.1929 4347.9 35.8605 4347.47 35.8605C4347.05 35.8605 4346.7 36.1929 4346.7 36.5992C4346.7 37.0054 4347.05 37.3378 4347.47 37.3378ZM4352.98 45.7583C4354.42 45.7583 4355.47 45.0381 4355.8 43.9671L4354.75 43.6716C4354.47 44.4103 4353.83 44.7796 4352.98 44.7796C4351.7 44.7796 4350.82 43.9532 4350.77 42.4344H4355.91V41.9728C4355.91 39.3321 4354.34 38.4273 4352.87 38.4273C4350.95 38.4273 4349.67 39.9415 4349.67 42.1205C4349.67 44.2995 4350.93 45.7583 4352.98 45.7583ZM4350.77 41.4926C4350.84 40.3893 4351.62 39.406 4352.87 39.406C4354.05 39.406 4354.81 40.2924 4354.81 41.4926H4350.77ZM4357.57 45.6105H4358.66V41.1233C4358.66 40.1631 4359.42 39.4614 4360.45 39.4614C4360.74 39.4614 4361.04 39.5168 4361.12 39.5353V38.4273C4360.99 38.4181 4360.71 38.4088 4360.54 38.4088C4359.69 38.4088 4358.96 38.8889 4358.7 39.5906H4358.62V38.5196H4357.57V45.6105ZM4362.39 45.6844C4362.85 45.6844 4363.22 45.3105 4363.22 44.8534C4363.22 44.3964 4362.85 44.0225 4362.39 44.0225C4361.93 44.0225 4361.56 44.3964 4361.56 44.8534C4361.56 45.3105 4361.93 45.6844 4362.39 45.6844ZM4367.85 45.7583C4369.22 45.7583 4369.68 44.9088 4369.92 44.521H4370.05V45.6105H4371.1V36.156H4370.01V39.646H4369.92C4369.68 39.2767 4369.26 38.4273 4367.87 38.4273C4366.08 38.4273 4364.84 39.8492 4364.84 42.0835C4364.84 44.3364 4366.08 45.7583 4367.85 45.7583ZM4368 44.7796C4366.63 44.7796 4365.93 43.5793 4365.93 42.0651C4365.93 40.5693 4366.62 39.406 4368 39.406C4369.33 39.406 4370.03 40.477 4370.03 42.0651C4370.03 43.6716 4369.31 44.7796 4368 44.7796ZM4376.22 45.7583C4377.66 45.7583 4378.72 45.0381 4379.05 43.9671L4378 43.6716C4377.72 44.4103 4377.08 44.7796 4376.22 44.7796C4374.94 44.7796 4374.06 43.9532 4374.01 42.4344H4379.16V41.9728C4379.16 39.3321 4377.59 38.4273 4376.11 38.4273C4374.19 38.4273 4372.92 39.9415 4372.92 42.1205C4372.92 44.2995 4374.17 45.7583 4376.22 45.7583ZM4374.01 41.4926C4374.09 40.3893 4374.87 39.406 4376.11 39.406C4377.29 39.406 4378.05 40.2924 4378.05 41.4926H4374.01ZM4380.82 48.2696H4381.91V44.521H4382C4382.24 44.9088 4382.7 45.7583 4384.07 45.7583C4385.84 45.7583 4387.08 44.3364 4387.08 42.0835C4387.08 39.8492 4385.84 38.4273 4384.05 38.4273C4382.66 38.4273 4382.24 39.2767 4382 39.646H4381.87V38.5196H4380.82V48.2696ZM4381.89 42.0651C4381.89 40.477 4382.59 39.406 4383.92 39.406C4385.3 39.406 4385.99 40.5693 4385.99 42.0651C4385.99 43.5793 4385.29 44.7796 4383.92 44.7796C4382.61 44.7796 4381.89 43.6716 4381.89 42.0651ZM4388.74 45.6105H4389.83V38.5196H4388.74V45.6105ZM4389.29 37.3378C4389.72 37.3378 4390.07 37.0054 4390.07 36.5992C4390.07 36.1929 4389.72 35.8605 4389.29 35.8605C4388.87 35.8605 4388.52 36.1929 4388.52 36.5992C4388.52 37.0054 4388.87 37.3378 4389.29 37.3378ZM4394.8 45.7583C4396.24 45.7583 4397.29 45.0381 4397.62 43.9671L4396.57 43.6716C4396.29 44.4103 4395.65 44.7796 4394.8 44.7796C4393.52 44.7796 4392.64 43.9532 4392.59 42.4344H4397.73V41.9728C4397.73 39.3321 4396.16 38.4273 4394.69 38.4273C4392.77 38.4273 4391.49 39.9415 4391.49 42.1205C4391.49 44.2995 4392.75 45.7583 4394.8 45.7583ZM4392.59 41.4926C4392.66 40.3893 4393.44 39.406 4394.69 39.406C4395.87 39.406 4396.62 40.2924 4396.62 41.4926H4392.59ZM4404.41 40.1077C4404.07 39.1013 4403.3 38.4273 4401.9 38.4273C4400.41 38.4273 4399.3 39.2767 4399.3 40.477C4399.3 41.4557 4399.88 42.1112 4401.18 42.4159L4402.36 42.6929C4403.08 42.8591 4403.42 43.2007 4403.42 43.6901C4403.42 44.2995 4402.77 44.798 4401.75 44.798C4400.86 44.798 4400.3 44.4149 4400.11 43.6531L4399.08 43.9117C4399.33 45.1166 4400.32 45.7583 4401.77 45.7583C4403.42 45.7583 4404.54 44.858 4404.54 43.6347C4404.54 42.6468 4403.92 42.0235 4402.66 41.7142L4401.61 41.4557C4400.77 41.248 4400.39 40.9664 4400.39 40.4216C4400.39 39.8122 4401.03 39.3691 4401.9 39.3691C4402.85 39.3691 4403.24 39.8953 4403.43 40.3847L4404.41 40.1077ZM4411.2 40.1077C4410.86 39.1013 4410.1 38.4273 4408.69 38.4273C4407.2 38.4273 4406.09 39.2767 4406.09 40.477C4406.09 41.4557 4406.67 42.1112 4407.97 42.4159L4409.15 42.6929C4409.87 42.8591 4410.21 43.2007 4410.21 43.6901C4410.21 44.2995 4409.56 44.798 4408.55 44.798C4407.65 44.798 4407.1 44.4149 4406.9 43.6531L4405.87 43.9117C4406.12 45.1166 4407.11 45.7583 4408.56 45.7583C4410.21 45.7583 4411.33 44.858 4411.33 43.6347C4411.33 42.6468 4410.72 42.0235 4409.45 41.7142L4408.4 41.4557C4407.56 41.248 4407.18 40.9664 4407.18 40.4216C4407.18 39.8122 4407.83 39.3691 4408.69 39.3691C4409.64 39.3691 4410.04 39.8953 4410.23 40.3847L4411.2 40.1077ZM4415.95 45.7583C4417.39 45.7583 4418.44 45.0381 4418.77 43.9671L4417.72 43.6716C4417.44 44.4103 4416.8 44.7796 4415.95 44.7796C4414.67 44.7796 4413.79 43.9532 4413.74 42.4344H4418.88V41.9728C4418.88 39.3321 4417.31 38.4273 4415.84 38.4273C4413.92 38.4273 4412.64 39.9415 4412.64 42.1205C4412.64 44.2995 4413.9 45.7583 4415.95 45.7583ZM4413.74 41.4926C4413.81 40.3893 4414.59 39.406 4415.84 39.406C4417.02 39.406 4417.77 40.2924 4417.77 41.4926H4413.74ZM4425.99 48.1034C4426.93 48.1034 4428.13 47.8264 4428.7 47.5864L4428.44 46.737C4428.11 46.8478 4427.04 47.2171 4426.02 47.2171C4422.87 47.2171 4421.19 45.4443 4421.19 42.3051C4421.19 39.2213 4422.9 37.3747 4425.8 37.3747C4428.74 37.3747 4430.12 39.4429 4430.12 41.5111C4430.12 43.6162 4429.9 44.558 4428.96 44.558C4428.41 44.558 4428.11 44.0963 4428.11 43.5793V39.406H4427.13V39.923H4427.08C4426.95 39.5168 4426.23 39.1659 4425.3 39.2583C4423.92 39.406 4422.87 40.5509 4422.87 42.2128C4422.87 43.9671 4423.7 45.3151 4425.3 45.3705C4426.36 45.4074 4426.91 44.8904 4427.13 44.3549H4427.19C4427.3 45.1489 4428.3 45.4259 4428.94 45.4259C4430.9 45.4259 4431.08 43.3208 4431.08 41.5296C4431.08 38.9997 4429.31 36.5068 4425.86 36.5068C4422.29 36.5068 4420.17 38.6674 4420.17 42.2682C4420.17 45.9983 4422.22 48.1034 4425.99 48.1034ZM4425.45 44.4287C4424.25 44.4287 4423.83 43.3392 4423.83 42.1574C4423.83 41.0864 4424.44 40.1631 4425.49 40.1631C4426.6 40.1631 4427.19 40.6063 4427.19 42.1574C4427.19 43.6901 4426.69 44.4287 4425.45 44.4287ZM4435.58 48.4174C4437.28 48.4174 4438.64 47.6418 4438.64 45.8137V38.5196H4437.59V39.646H4437.48C4437.24 39.2767 4436.8 38.4273 4435.41 38.4273C4433.62 38.4273 4432.38 39.8492 4432.38 42.0281C4432.38 44.2441 4433.68 45.4997 4435.39 45.4997C4436.78 45.4997 4437.22 44.6872 4437.46 44.2995H4437.55V45.7398C4437.55 46.9216 4436.72 47.4571 4435.58 47.4571C4434.29 47.4571 4433.84 46.7785 4433.55 46.3861L4432.68 46.9955C4433.12 47.7387 4433.99 48.4174 4435.58 48.4174ZM4435.54 44.521C4434.17 44.521 4433.47 43.487 4433.47 42.0097C4433.47 40.5693 4434.16 39.406 4435.54 39.406C4436.87 39.406 4437.57 40.477 4437.57 42.0097C4437.57 43.5793 4436.85 44.521 4435.54 44.521ZM4440.64 45.6105H4441.73V41.1787C4441.73 40.14 4442.48 39.406 4443.33 39.406C4444.16 39.406 4444.74 39.9461 4444.74 40.754V45.6105H4445.84V40.9941C4445.84 40.08 4446.42 39.406 4447.41 39.406C4448.19 39.406 4448.85 39.8169 4448.85 40.8648V45.6105H4449.94V40.8648C4449.94 39.1982 4449.05 38.4273 4447.78 38.4273C4446.77 38.4273 4446.02 38.8936 4445.66 39.6276H4445.59C4445.23 38.8705 4444.62 38.4273 4443.68 38.4273C4442.76 38.4273 4442.08 38.8705 4441.78 39.6276H4441.69V38.5196H4440.64V45.6105ZM4454.02 45.7767C4455.26 45.7767 4455.91 45.112 4456.13 44.6503H4456.18V45.6105H4457.27V40.9387C4457.27 38.6858 4455.55 38.4273 4454.65 38.4273C4453.58 38.4273 4452.36 38.7966 4451.81 40.0892L4452.84 40.4585C4453.08 39.9415 4453.65 39.3875 4454.69 39.3875C4455.69 39.3875 4456.18 39.9184 4456.18 40.8279V40.8648C4456.18 41.3911 4455.65 41.3449 4454.35 41.5111C4453.04 41.6819 4451.6 41.9728 4451.6 43.5978C4451.6 44.9827 4452.67 45.7767 4454.02 45.7767ZM4454.19 44.798C4453.32 44.798 4452.69 44.4103 4452.69 43.6531C4452.69 42.8222 4453.45 42.5637 4454.3 42.4529C4454.76 42.3975 4456 42.2682 4456.18 42.0466V43.0438C4456.18 43.9301 4455.48 44.798 4454.19 44.798ZM4459.26 45.6105H4460.35V38.5196H4459.26V45.6105ZM4459.81 37.3378C4460.24 37.3378 4460.59 37.0054 4460.59 36.5992C4460.59 36.1929 4460.24 35.8605 4459.81 35.8605C4459.39 35.8605 4459.04 36.1929 4459.04 36.5992C4459.04 37.0054 4459.39 37.3378 4459.81 37.3378ZM4463.44 36.156H4462.35V45.6105H4463.44V36.156ZM4466.22 45.6844C4466.68 45.6844 4467.06 45.3105 4467.06 44.8534C4467.06 44.3964 4466.68 44.0225 4466.22 44.0225C4465.77 44.0225 4465.39 44.3964 4465.39 44.8534C4465.39 45.3105 4465.77 45.6844 4466.22 45.6844ZM4471.89 45.7583C4473.46 45.7583 4474.5 44.798 4474.68 43.5424H4473.59C4473.39 44.3179 4472.74 44.7796 4471.89 44.7796C4470.6 44.7796 4469.77 43.7085 4469.77 42.0651C4469.77 40.4585 4470.62 39.406 4471.89 39.406C4472.85 39.406 4473.42 39.9969 4473.59 40.6432H4474.68C4474.5 39.3137 4473.37 38.4273 4471.87 38.4273C4469.95 38.4273 4468.68 39.9415 4468.68 42.102C4468.68 44.2256 4469.9 45.7583 4471.89 45.7583ZM4479.15 45.7583C4481.07 45.7583 4482.37 44.2995 4482.37 42.102C4482.37 39.8861 4481.07 38.4273 4479.15 38.4273C4477.23 38.4273 4475.94 39.8861 4475.94 42.102C4475.94 44.2995 4477.23 45.7583 4479.15 45.7583ZM4479.15 44.7796C4477.69 44.7796 4477.03 43.5239 4477.03 42.102C4477.03 40.6801 4477.69 39.406 4479.15 39.406C4480.61 39.406 4481.28 40.6801 4481.28 42.102C4481.28 43.5239 4480.61 44.7796 4479.15 44.7796ZM4484.03 45.6105H4485.12V41.1787C4485.12 40.14 4485.88 39.406 4486.73 39.406C4487.55 39.406 4488.13 39.9461 4488.13 40.754V45.6105H4489.24V40.9941C4489.24 40.08 4489.81 39.406 4490.81 39.406C4491.58 39.406 4492.25 39.8169 4492.25 40.8648V45.6105H4493.34V40.8648C4493.34 39.1982 4492.44 38.4273 4491.18 38.4273C4490.16 38.4273 4489.42 38.8936 4489.05 39.6276H4488.98C4488.63 38.8705 4488.01 38.4273 4487.08 38.4273C4486.15 38.4273 4485.47 38.8705 4485.17 39.6276H4485.08V38.5196H4484.03V45.6105Z" fill="white"/>
<path d="M4296.21 35.8934L4304.68 30.8114C4304.82 30.7259 4304.99 30.6807 4305.15 30.6807C4305.32 30.6807 4305.48 30.7259 4305.62 30.8114L4314.09 35.8943C4314.16 35.935 4314.22 35.9926 4314.26 36.0615C4314.3 36.1305 4314.32 36.2083 4314.32 36.2875V47.9439C4314.32 48.187 4314.22 48.4201 4314.05 48.5921C4313.88 48.764 4313.64 48.8605 4313.4 48.8605H4296.9C4296.66 48.8605 4296.42 48.764 4296.25 48.5921C4296.08 48.4201 4295.98 48.187 4295.98 47.9439V36.2866C4295.98 36.2074 4296 36.1296 4296.04 36.0606C4296.08 35.9917 4296.14 35.9341 4296.21 35.8934ZM4297.82 37.0658V47.0272H4312.48V37.0649L4305.15 32.6649L4297.82 37.0649V37.0658ZM4305.2 42.167L4310.06 38.076L4311.24 39.4785L4305.22 44.554L4299.07 39.4849L4300.23 38.0695L4305.2 42.167V42.167Z" fill="white"/>
</svg>
